<?xml version="1.0" encoding="UTF-8"?>
<svg width="700pt" height="700pt" version="1.1" viewBox="0 0 700 700" xmlns="http://www.w3.org/2000/svg" xmlns:xlink="http://www.w3.org/1999/xlink">
 <defs>
  <symbol id="n" overflow="visible">
   <path d="m29.312-1.75c-1.5117 0.78125-3.0898 1.3711-4.7344 1.7656-1.6367 0.40625-3.3398 0.60938-5.1094 0.60938-5.3125 0-9.5273-1.4844-12.641-4.4531-3.1055-2.9688-4.6562-7-4.6562-12.094s1.5508-9.125 4.6562-12.094c3.1133-2.9688 7.3281-4.4531 12.641-4.4531 1.7695 0 3.4727 0.19922 5.1094 0.59375 1.6445 0.39844 3.2227 0.99219 4.7344 1.7812v6.5938c-1.5312-1.0391-3.0391-1.8008-4.5156-2.2812-1.4805-0.48828-3.0391-0.73438-4.6719-0.73438-2.9375 0-5.2461 0.94531-6.9219 2.8281-1.6797 1.875-2.5156 4.4648-2.5156 7.7656 0 3.293 0.83594 5.8828 2.5156 7.7656 1.6758 1.875 3.9844 2.8125 6.9219 2.8125 1.6328 0 3.1914-0.23828 4.6719-0.71875 1.4766-0.48828 2.9844-1.2539 4.5156-2.2969z"/>
  </symbol>
  <symbol id="c" overflow="visible">
   <path d="m21.453-17.406c-0.67969-0.3125-1.3516-0.53906-2.0156-0.6875-0.65625-0.15625-1.3203-0.23438-1.9844-0.23438-1.9688 0-3.4844 0.63281-4.5469 1.8906-1.0547 1.2617-1.5781 3.0703-1.5781 5.4219v11.016h-7.6562v-23.922h7.6562v3.9219c0.97656-1.5625 2.1016-2.7031 3.375-3.4219 1.2812-0.71875 2.8125-1.0781 4.5938-1.0781 0.25 0 0.52344 0.011719 0.82812 0.03125 0.30078 0.023438 0.73438 0.070312 1.2969 0.14062z"/>
  </symbol>
  <symbol id="b" overflow="visible">
   <path d="m27.562-12.031v2.1875h-17.891c0.1875 1.793 0.83203 3.1367 1.9375 4.0312 1.1133 0.89844 2.6719 1.3438 4.6719 1.3438 1.6016 0 3.25-0.23438 4.9375-0.70312 1.6875-0.47656 3.4219-1.2031 5.2031-2.1719v5.8906c-1.8047 0.6875-3.6094 1.2031-5.4219 1.5469-1.8125 0.35156-3.6211 0.53125-5.4219 0.53125-4.3359 0-7.7031-1.0977-10.109-3.2969-2.3984-2.207-3.5938-5.2969-3.5938-9.2656 0-3.9062 1.1758-6.9727 3.5312-9.2031 2.3633-2.2383 5.6094-3.3594 9.7344-3.3594 3.7578 0 6.7695 1.1367 9.0312 3.4062 2.2578 2.2617 3.3906 5.2812 3.3906 9.0625zm-7.8594-2.5312c0-1.457-0.42969-2.6289-1.2812-3.5156-0.84375-0.89453-1.9492-1.3438-3.3125-1.3438-1.4922 0-2.6992 0.41797-3.625 1.25-0.91797 0.83594-1.4922 2.0391-1.7188 3.6094z"/>
  </symbol>
  <symbol id="a" overflow="visible">
   <path d="m14.391-10.766c-1.5938 0-2.793 0.27344-3.5938 0.8125-0.80469 0.54297-1.2031 1.3398-1.2031 2.3906 0 0.96875 0.32031 1.7305 0.96875 2.2812 0.64453 0.54297 1.5469 0.8125 2.7031 0.8125 1.4375 0 2.6445-0.51562 3.625-1.5469 0.98828-1.0312 1.4844-2.3203 1.4844-3.875v-0.875zm11.688-2.8906v13.656h-7.7031v-3.5469c-1.0312 1.4492-2.1875 2.5078-3.4688 3.1719s-2.8398 1-4.6719 1c-2.4805 0-4.4961-0.72266-6.0469-2.1719-1.543-1.4453-2.3125-3.3203-2.3125-5.625 0-2.8125 0.96094-4.8672 2.8906-6.1719 1.9375-1.3125 4.9688-1.9688 9.0938-1.9688h4.5156v-0.60938c0-1.207-0.48047-2.0938-1.4375-2.6562-0.94922-0.5625-2.4375-0.84375-4.4688-0.84375-1.6367 0-3.1562 0.16797-4.5625 0.5-1.4062 0.32422-2.7188 0.8125-3.9375 1.4688v-5.8281c1.6445-0.40625 3.2891-0.70703 4.9375-0.90625 1.6562-0.20703 3.3047-0.3125 4.9531-0.3125 4.3203 0 7.4375 0.85547 9.3438 2.5625 1.9141 1.6992 2.875 4.4609 2.875 8.2812z"/>
  </symbol>
  <symbol id="j" overflow="visible">
   <path d="m12.031-30.719v6.7969h7.875v5.4688h-7.875v10.141c0 1.1172 0.21875 1.8711 0.65625 2.2656 0.4375 0.38672 1.3125 0.57812 2.625 0.57812h3.9375v5.4688h-6.5625c-3.0234 0-5.1641-0.62891-6.4219-1.8906-1.2617-1.2578-1.8906-3.3984-1.8906-6.4219v-10.141h-3.7969v-5.4688h3.7969v-6.7969z"/>
  </symbol>
  <symbol id="i" overflow="visible">
   <path d="m19.953-20.422v-12.812h7.6875v33.234h-7.6875v-3.4531c-1.0547 1.4062-2.2148 2.4375-3.4844 3.0938-1.2734 0.65625-2.7422 0.98438-4.4062 0.98438-2.9492 0-5.3711-1.1719-7.2656-3.5156-1.8867-2.3438-2.8281-5.3594-2.8281-9.0469s0.94141-6.7031 2.8281-9.0469c1.8945-2.3438 4.3164-3.5156 7.2656-3.5156 1.6562 0 3.1172 0.33594 4.3906 1 1.2812 0.65625 2.4453 1.6836 3.5 3.0781zm-5.0469 15.484c1.6445 0 2.8945-0.59766 3.75-1.7969 0.86328-1.1953 1.2969-2.9297 1.2969-5.2031 0-2.2812-0.43359-4.0195-1.2969-5.2188-0.85547-1.1953-2.1055-1.7969-3.75-1.7969-1.625 0-2.8711 0.60156-3.7344 1.7969-0.85547 1.1992-1.2812 2.9375-1.2812 5.2188 0 2.2734 0.42578 4.0078 1.2812 5.2031 0.86328 1.1992 2.1094 1.7969 3.7344 1.7969z"/>
  </symbol>
  <symbol id="h" overflow="visible">
   <path d="m16.406-4.9375c1.6328 0 2.8828-0.59766 3.75-1.7969 0.86328-1.1953 1.2969-2.9297 1.2969-5.2031 0-2.2812-0.43359-4.0195-1.2969-5.2188-0.86719-1.1953-2.1172-1.7969-3.75-1.7969-1.6367 0-2.8906 0.60547-3.7656 1.8125-0.875 1.1992-1.3125 2.9336-1.3125 5.2031 0 2.2617 0.4375 3.9961 1.3125 5.2031 0.875 1.1992 2.1289 1.7969 3.7656 1.7969zm-5.0781-15.484c1.0508-1.3945 2.2188-2.4219 3.5-3.0781 1.2812-0.66406 2.7539-1 4.4219-1 2.9453 0 5.3672 1.1719 7.2656 3.5156 1.8945 2.3438 2.8438 5.3594 2.8438 9.0469s-0.94922 6.7031-2.8438 9.0469c-1.8984 2.3438-4.3203 3.5156-7.2656 3.5156-1.668 0-3.1406-0.33594-4.4219-1s-2.4492-1.6914-3.5-3.0781v3.4531h-7.6562v-33.234h7.6562z"/>
  </symbol>
  <symbol id="g" overflow="visible">
   <path d="m0.53125-23.922h7.6562l6.4219 16.234 5.4688-16.234h7.6562l-10.062 26.188c-1.0117 2.6641-2.1953 4.5234-3.5469 5.5781-1.3438 1.0625-3.1211 1.5938-5.3281 1.5938h-4.4219v-5.0156h2.3906c1.3008 0 2.2422-0.21094 2.8281-0.625 0.59375-0.40625 1.0547-1.1484 1.3906-2.2188l0.20312-0.65625z"/>
  </symbol>
  <symbol id="f" overflow="visible">
   <path d="m22.359-23.172v5.7969c-1.6367-0.67578-3.2148-1.1875-4.7344-1.5312-1.5234-0.34375-2.9609-0.51562-4.3125-0.51562-1.4609 0-2.543 0.18359-3.25 0.54688-0.69922 0.36719-1.0469 0.92188-1.0469 1.6719 0 0.61719 0.26562 1.0898 0.79688 1.4219 0.53125 0.32422 1.4883 0.5625 2.875 0.71875l1.3438 0.1875c3.9141 0.5 6.5508 1.3242 7.9062 2.4688 1.3516 1.1367 2.0312 2.9219 2.0312 5.3594 0 2.5547-0.94531 4.4688-2.8281 5.75-1.875 1.2812-4.6797 1.9219-8.4062 1.9219-1.5859 0-3.2188-0.125-4.9062-0.375s-3.4219-0.625-5.2031-1.125v-5.8125c1.5195 0.74219 3.082 1.2969 4.6875 1.6719 1.6016 0.36719 3.2344 0.54688 4.8906 0.54688 1.4883 0 2.6094-0.20312 3.3594-0.60938 0.75781-0.41406 1.1406-1.0312 1.1406-1.8438 0-0.6875-0.26172-1.1953-0.78125-1.5312-0.52344-0.33203-1.5586-0.59375-3.1094-0.78125l-1.3438-0.17188c-3.4062-0.42578-5.793-1.2109-7.1562-2.3594-1.3672-1.1562-2.0469-2.9102-2.0469-5.2656 0-2.5312 0.86719-4.4062 2.6094-5.625 1.7383-1.2266 4.3984-1.8438 7.9844-1.8438 1.4062 0 2.8828 0.10938 4.4375 0.32812 1.5508 0.21094 3.2383 0.54297 5.0625 1z"/>
  </symbol>
  <symbol id="m" overflow="visible">
   <path d="m3.4219-9.3125v-14.609h7.6875v2.3906c0 1.293-0.011719 2.918-0.03125 4.875-0.011719 1.9609-0.015625 3.2656-0.015625 3.9219 0 1.9297 0.046875 3.3125 0.14062 4.1562 0.10156 0.84375 0.28125 1.4609 0.53125 1.8438 0.3125 0.5 0.71875 0.88672 1.2188 1.1562 0.50781 0.27344 1.0938 0.40625 1.75 0.40625 1.5938 0 2.8438-0.60938 3.75-1.8281 0.91406-1.2266 1.375-2.9297 1.375-5.1094v-11.812h7.6406v23.922h-7.6406v-3.4531c-1.1562 1.3867-2.3828 2.4141-3.6719 3.0781-1.2812 0.66406-2.6992 1-4.25 1-2.7734 0-4.8828-0.84766-6.3281-2.5469-1.4375-1.6953-2.1562-4.1602-2.1562-7.3906z"/>
  </symbol>
  <symbol id="e" overflow="visible">
   <path d="m11.328-3.4531v12.547h-7.6562v-33.016h7.6562v3.5c1.0508-1.3945 2.2188-2.4219 3.5-3.0781 1.2812-0.66406 2.7539-1 4.4219-1 2.9453 0 5.3672 1.1719 7.2656 3.5156 1.8945 2.3438 2.8438 5.3594 2.8438 9.0469s-0.94922 6.7031-2.8438 9.0469c-1.8984 2.3438-4.3203 3.5156-7.2656 3.5156-1.668 0-3.1406-0.33594-4.4219-1s-2.4492-1.6914-3.5-3.0781zm5.0781-15.5c-1.6367 0-2.8906 0.60547-3.7656 1.8125-0.875 1.1992-1.3125 2.9336-1.3125 5.2031 0 2.2617 0.4375 3.9961 1.3125 5.2031 0.875 1.1992 2.1289 1.7969 3.7656 1.7969 1.6328 0 2.8828-0.59766 3.75-1.7969 0.86328-1.1953 1.2969-2.9297 1.2969-5.2031 0-2.2812-0.43359-4.0195-1.2969-5.2188-0.86719-1.1953-2.1172-1.7969-3.75-1.7969z"/>
  </symbol>
  <symbol id="d" overflow="visible">
   <path d="m3.6719-33.234h7.6562v33.234h-7.6562z"/>
  </symbol>
  <symbol id="l" overflow="visible">
   <path d="m3.6719-33.234h7.6562v18.094l8.7969-8.7812h8.8906l-11.688 10.969 12.594 12.953h-9.2656l-9.3281-9.9688v9.9688h-7.6562z"/>
  </symbol>
  <symbol id="k" overflow="visible">
   <path d="m3.6719-23.922h7.6562v23.922h-7.6562zm0-9.3125h7.6562v6.2344h-7.6562z"/>
  </symbol>
 </defs>
 <g>
  <path d="m498.75 236.25h26.25c2.3203 0 4.5469-0.92188 6.1875-2.5625s2.5625-3.8672 2.5625-6.1875v-26.25c0-4.832-3.918-8.75-8.75-8.75s-8.75 3.918-8.75 8.75v17.5h-17.5c-4.832 0-8.75 3.918-8.75 8.75s3.918 8.75 8.75 8.75z"/>
  <path d="m292.9 201.25c9.2812 0 18.184-3.6875 24.746-10.25 6.5664-6.5664 10.254-15.469 10.254-24.75s-3.6875-18.184-10.254-24.75c-6.5625-6.5625-15.465-10.25-24.746-10.25-9.2852 0-18.188 3.6875-24.75 10.25-6.5625 6.5664-10.25 15.469-10.25 24.75s3.6875 18.184 10.25 24.75c6.5625 6.5625 15.465 10.25 24.75 10.25zm0-52.5c4.6406 0 9.0898 1.8438 12.375 5.125 3.2812 3.2812 5.125 7.7344 5.125 12.375s-1.8438 9.0938-5.125 12.375c-3.2852 3.2812-7.7344 5.125-12.375 5.125-4.6406 0-9.0938-1.8438-12.375-5.125s-5.125-7.7344-5.125-12.375 1.8438-9.0938 5.125-12.375 7.7344-5.125 12.375-5.125z"/>
  <path d="m101.76 198.34c3.707 1.918 7.8164 2.9141 11.988 2.9062 5.4336 0 10.73-1.6992 15.156-4.8555 4.4219-3.1523 7.75-7.6133 9.5195-12.75l68.809-1.0664-12.004 9.9219c-3.3047 2.7188-4.1602 7.4258-2.0234 11.129l16.355 28.246 0.35938 39.375h-43.672c-0.51172 0.050781-1.0195 0.15625-1.5156 0.30469-2.6875-7.9141-8.9883-14.078-16.965-16.59-7.9727-2.5156-16.668-1.0781-23.41 3.8672-6.7461 4.9453-10.727 12.805-10.727 21.168s3.9805 16.223 10.727 21.168c6.7422 4.9453 15.438 6.3828 23.41 3.8672 7.9766-2.5117 14.277-8.6758 16.965-16.59 0.49609 0.14844 1.0039 0.25391 1.5156 0.30469h52.5c2.3359 0 4.5703-0.93359 6.2148-2.5898 1.6445-1.6602 2.5547-3.9062 2.5352-6.2383l-0.40234-44.344 28-10.5c1.8984 1.2344 3.832 2.3555 5.7852 3.3789l5.9062 35.473v-0.003907c0.70313 4.2188 4.3555 7.3086 8.6328 7.3086h4.5781v43.75h-26.25c-4.832 0-8.75 3.9141-8.75 8.75v127.64l-76.188 76.188v-0.003906c-2.5 2.5039-3.25 6.2656-1.8945 9.5352 1.3555 3.2695 4.543 5.4023 8.082 5.4023h280c3.5391 0 6.7266-2.1328 8.082-5.4023 1.3555-3.2695 0.60547-7.0312-1.8945-9.5352l-58.688-58.684v-46.457l19.59-32.629c33.051 19.941 53.035 30.207 59.16 30.207h52.5c2.3203 0 4.5469-0.92188 6.1875-2.5625s2.5625-3.8672 2.5625-6.1875v-48.879l14.926-14.926c1.6406-1.6445 2.5664-3.8711 2.5742-6.1953v-26.25h12.785c5.9219 0 11.445-2.9961 14.672-7.9609 3.2305-4.9688 3.7266-11.23 1.3203-16.645l-27.203-61.25c10.324-12.293 15.965-27.844 15.926-43.898 0.097656-28.387-7.7617-56.234-22.688-80.383-14.926-24.148-36.316-43.629-61.75-56.238l-25.375-12.703v-0.003906c-3.8516-1.918-8.5234-0.75391-11.023 2.75l-3.668 5.082h-59.246v-17.5c0-2.3203-0.92188-4.5469-2.5625-6.1875s-3.8672-2.5625-6.1875-2.5625h-87.5c-4.832 0-8.75 3.918-8.75 8.75v35h-13.352c-4.2812-0.003906-7.9336 3.0938-8.6367 7.3164l-5.9062 35.465c-1.9531 1.0234-3.8867 2.1445-5.7852 3.3789l-33.695-12.629c-4.0039-1.5039-8.5078 0.10938-10.648 3.8125l-8.8203 15.285c-0.22656 0-0.41016-0.13281-0.64062-0.13281l-52.516 0.003906v-27.859c7.8477-2.7734 13.914-9.1055 16.352-17.066 2.4336-7.957 0.95313-16.602-3.9961-23.293-4.9531-6.6914-12.781-10.641-21.105-10.641s-16.152 3.9492-21.105 10.641c-4.9492 6.6914-6.4297 15.336-3.9961 23.293 2.4375 7.9609 8.5039 14.293 16.352 17.066v36.609c0 2.3203 0.92188 4.5469 2.5625 6.1875s3.8672 2.5625 6.1875 2.5625h52.367c-0.80078 3.2227 0.30859 6.625 2.8633 8.75l27.754 22.855c0 0.64062 0 1.2969-0.050781 1.9414l-84.543 1.3047c-2.9336-8.1875-9.7344-14.391-18.156-16.562-8.4219-2.1758-17.371-0.035156-23.902 5.7148-6.5273 5.7461-9.7852 14.352-8.6992 22.984 1.0898 8.6289 6.3789 16.16 14.129 20.105zm38.238 90.406c-3.5391 0-6.7305-2.1328-8.082-5.4023-1.3555-3.2695-0.60938-7.0312 1.8945-9.5352s6.2656-3.25 9.5352-1.8945c3.2695 1.3516 5.4023 4.543 5.4023 8.082 0 2.3203-0.92188 4.5469-2.5625 6.1875s-3.8672 2.5625-6.1875 2.5625zm0-236.25c3.5391 0 6.7305 2.1328 8.082 5.4023 1.3555 3.2695 0.60938 7.0312-1.8945 9.5352s-6.2656 3.25-9.5352 1.8945c-3.2695-1.3516-5.4023-4.543-5.4023-8.082 0-4.832 3.918-8.75 8.75-8.75zm157.5 218.75h12.898c4.2734 0 7.9219-3.0898 8.625-7.3047l5.9141-35.473c1.9414-1.0156 3.875-2.1445 5.7734-3.3789l33.715 12.625h0.003907c4.0039 1.5039 8.5078-0.10938 10.648-3.8125l3.6992-6.4062h41.223c0.64453-0.050781 1.2852-0.17969 1.8984-0.38672l15.602 20.801v14.586h-35v17.5h20.188l-23.434 9.3711c-3.3242 1.3281-5.5039 4.5469-5.5039 8.1289v17.5h-96.25zm95.078-142.34-3.6914-6.4062h22.363v35h-41.902l21.219-17.5c3.2812-2.7148 4.1289-7.3984 2.0117-11.094zm18.672 46.094v35h-22.363l3.6914-6.4062c2.1172-3.6953 1.2695-8.3789-2.0117-11.094l-21.219-17.5zm-58.688 216.19 32.438 32.434v5.1289h-52.5v-96.25h17.5v52.5c0 2.3203 0.92188 4.5469 2.5625 6.1875zm-55.465 116.31h0.40234v-0.45312l32.84-37.527v-0.003906c1.3945-1.5977 2.1641-3.6445 2.1602-5.7656v-17.5h17.5v78.75h-68.25zm-100.98 17.5 63.812-63.812h0.003906c1.6406-1.6406 2.5625-3.8672 2.5625-6.1875v-122.5h52.5v127.96l-17.5 20v-42.961h-17.5v63l-21.473 24.5zm237.75 0h-66.375v-78.75h17.5v26.25c0 2.3203 0.92188 4.5469 2.5625 6.1875zm-41.875-119.11-24.5-24.5v-48.895h26.25v35c0 3.0156 1.5547 5.8203 4.1133 7.4219 3.2656 2.0469 6.2109 3.8516 9.293 5.75zm74.523-350.98 18.707 9.3633c22.523 11.164 41.465 28.414 54.68 49.797 13.215 21.379 20.176 46.035 20.09 71.172 0.039062 13.535-5.3398 26.523-14.938 36.066-2.5586 2.5586-3.2773 6.4297-1.8086 9.7383l29.531 66.449h-21.535c-4.832 0-8.75 3.918-8.75 8.75v26.25h-1.5039c-13.535 0.039062-26.52-5.3398-36.059-14.938-3.4336-3.3164-8.8906-3.2656-12.266 0.10938s-3.4258 8.832-0.10938 12.266c10.371 10.402 23.84 17.156 38.379 19.25l-3.3789 3.3789v-0.003906c-1.6406 1.6406-2.5625 3.8672-2.5625 6.1875v43.75l-42.918 0.050781c-20.219-9.3516-39.734-20.141-58.406-32.285l-0.042969-0.042969h-0.050781c-4.1211-2.5039-8.25-5.0391-12.328-7.5703l-0.003906-59.23 38.246-15.297v0.003906c3.3242-1.3281 5.5039-4.5469 5.5039-8.1289v-35c0-1.8945-0.61328-3.7344-1.75-5.25l-24.5-32.664v-99.285zm-160.27-19.914h70v17.5c0 2.3203 0.92188 4.5469 2.5625 6.1875s3.8672 2.5625 6.1875 2.5625h55.5l-27.613 38.668c-1.0664 1.4805-1.6367 3.2578-1.6367 5.082h-32.473l-3.7031-6.4062h0.003906c-2.1406-3.7031-6.6445-5.3164-10.648-3.8125l-33.68 12.625c-1.8984-1.2344-3.832-2.3633-5.7734-3.3789l-5.9531-35.473c-0.70313-4.2148-4.3516-7.3047-8.625-7.3047h-4.1484zm-94.176 96.25 10.09-17.5 31.07 11.645c2.7891 1.0469 5.918 0.60156 8.3047-1.1797 3.2891-2.4844 6.8633-4.5703 10.648-6.2109 2.7383-1.1758 4.6914-3.668 5.1797-6.6094l5.4414-32.645h20.176l5.4414 32.656h0.003907c0.48828 2.9375 2.4414 5.4297 5.1797 6.6055 3.7812 1.6484 7.3555 3.7305 10.648 6.2109 2.3828 1.7773 5.5078 2.2227 8.293 1.1836l31.082-11.656 10.078 17.5-25.594 21.062c-2.3008 1.8945-3.4766 4.832-3.1211 7.7969 0.53516 4.082 0.53516 8.2188 0 12.301-0.35547 2.9609 0.82031 5.8984 3.1211 7.7969l25.594 21.043-10.078 17.5-31.078-11.645h-0.003907c-2.7852-1.043-5.9102-0.59766-8.293 1.1797-3.293 2.4805-6.8672 4.5664-10.648 6.2109-2.7383 1.1758-4.6914 3.668-5.1797 6.6094l-5.4453 32.645h-20.184l-5.4258-32.656c-0.48828-2.9375-2.4414-5.4297-5.1797-6.6055-3.7812-1.6406-7.3555-3.7266-10.648-6.2109-2.3867-1.7812-5.5156-2.2266-8.3047-1.1836l-31.078 11.656-10.09-17.5 25.594-21.062c0.15625-0.15234 0.30469-0.3125 0.44531-0.48047 0.16797-0.16016 0.33203-0.32812 0.48047-0.50781 0.66016-0.71094 1.1914-1.5273 1.5781-2.4141l0.050781-0.097656c0.36719-0.96484 0.55859-1.9844 0.55859-3.0156 0.03125-0.125 0.054688-0.25 0.070312-0.37891 0-0.10547-0.050781-0.19141-0.0625-0.29688-0.007812-0.10547 0-0.40234 0-0.60547h0.003907c-0.53906-4.082-0.53906-8.2188 0-12.301 0.35156-2.9609-0.82812-5.9023-3.1328-7.7969zm-106.1 39.75c1.043-2.0859 2.8828-3.6641 5.1094-4.375 4.4766-1.1406 9.0703 1.3984 10.488 5.7969 1.418 4.3984-0.83203 9.1406-5.1328 10.828-4.6016 1.4805-9.5312-1.0508-11.008-5.6523-0.69922-2.1836-0.50391-4.5547 0.54297-6.5977z"/>
  <path d="m280 367.5h17.5v17.5h-17.5z"/>
  <path d="m280 402.5h17.5v17.5h-17.5z"/>
  <path d="m332.5 262.5h17.5v17.5h-17.5z"/>
  <path d="m367.5 262.5h17.5v17.5h-17.5z"/>
  <path d="m446.25 105h17.5v35h-17.5z"/>
  <path d="m446.25 157.5h17.5v17.5h-17.5z"/>
  <path d="m446.25 192.5h17.5v17.5h-17.5z"/>
  <use x="70" y="691.25" xlink:href="#n"/>
  <use x="102.109375" y="691.25" xlink:href="#c"/>
  <use x="123.683594" y="691.25" xlink:href="#b"/>
  <use x="153.355469" y="691.25" xlink:href="#a"/>
  <use x="182.878906" y="691.25" xlink:href="#j"/>
  <use x="203.792969" y="691.25" xlink:href="#b"/>
  <use x="233.464844" y="691.25" xlink:href="#i"/>
  <use x="280.011719" y="691.25" xlink:href="#h"/>
  <use x="311.328125" y="691.25" xlink:href="#g"/>
  <use x="355.078125" y="691.25" xlink:href="#f"/>
  <use x="381.121094" y="691.25" xlink:href="#m"/>
  <use x="412.265625" y="691.25" xlink:href="#e"/>
  <use x="443.585938" y="691.25" xlink:href="#a"/>
  <use x="473.105469" y="691.25" xlink:href="#d"/>
  <use x="488.101562" y="691.25" xlink:href="#b"/>
  <use x="517.773438" y="691.25" xlink:href="#c"/>
  <use x="539.351562" y="691.25" xlink:href="#l"/>
  <use x="583.679688" y="691.25" xlink:href="#d"/>
  <use x="598.675781" y="691.25" xlink:href="#a"/>
  <use x="628.195312" y="691.25" xlink:href="#k"/>
  <use x="643.195312" y="691.25" xlink:href="#e"/>
  <use x="674.511719" y="691.25" xlink:href="#a"/>
 </g>
</svg>
